<mxfile host="app.diagrams.net" agent="Mozilla/5.0 (Windows NT 10.0; Win64; x64) AppleWebKit/537.36 (KHTML, like Gecko) Chrome/130.0.0.0 Safari/537.36" version="24.8.4">
  <diagram name="Page-1" id="BmvQ2lHDkizOxqeNIpve">
    <mxGraphModel dx="4715" dy="2015" grid="1" gridSize="10" guides="1" tooltips="1" connect="1" arrows="1" fold="1" page="1" pageScale="1" pageWidth="827" pageHeight="1169" math="0" shadow="0">
      <root>
        <mxCell id="0" />
        <mxCell id="1" parent="0" />
        <mxCell id="kl4MLw1pX1x4LPBpUnM3-39" value="" style="edgeStyle=orthogonalEdgeStyle;rounded=0;orthogonalLoop=1;jettySize=auto;html=1;" edge="1" parent="1" source="kl4MLw1pX1x4LPBpUnM3-1" target="kl4MLw1pX1x4LPBpUnM3-38">
          <mxGeometry relative="1" as="geometry" />
        </mxCell>
        <mxCell id="kl4MLw1pX1x4LPBpUnM3-1" value="main" style="ellipse;whiteSpace=wrap;html=1;" vertex="1" parent="1">
          <mxGeometry x="855" y="20" width="120" height="80" as="geometry" />
        </mxCell>
        <mxCell id="kl4MLw1pX1x4LPBpUnM3-16" value="" style="edgeStyle=orthogonalEdgeStyle;rounded=0;orthogonalLoop=1;jettySize=auto;html=1;" edge="1" parent="1" source="kl4MLw1pX1x4LPBpUnM3-2" target="kl4MLw1pX1x4LPBpUnM3-15">
          <mxGeometry relative="1" as="geometry" />
        </mxCell>
        <mxCell id="kl4MLw1pX1x4LPBpUnM3-2" value="void sum (int count , ...)" style="ellipse;whiteSpace=wrap;html=1;" vertex="1" parent="1">
          <mxGeometry x="465" y="10" width="140" height="90" as="geometry" />
        </mxCell>
        <mxCell id="kl4MLw1pX1x4LPBpUnM3-5" value="" style="edgeStyle=orthogonalEdgeStyle;rounded=0;orthogonalLoop=1;jettySize=auto;html=1;" edge="1" parent="1" source="kl4MLw1pX1x4LPBpUnM3-3">
          <mxGeometry relative="1" as="geometry">
            <mxPoint x="220" y="220" as="targetPoint" />
          </mxGeometry>
        </mxCell>
        <mxCell id="kl4MLw1pX1x4LPBpUnM3-3" value="gcd&amp;nbsp;(int a, int b)" style="ellipse;whiteSpace=wrap;html=1;" vertex="1" parent="1">
          <mxGeometry x="160" y="50" width="120" height="80" as="geometry" />
        </mxCell>
        <mxCell id="kl4MLw1pX1x4LPBpUnM3-8" value="" style="edgeStyle=orthogonalEdgeStyle;rounded=0;orthogonalLoop=1;jettySize=auto;html=1;" edge="1" parent="1" source="kl4MLw1pX1x4LPBpUnM3-6">
          <mxGeometry relative="1" as="geometry">
            <mxPoint x="340.02857142857147" y="460" as="targetPoint" />
          </mxGeometry>
        </mxCell>
        <mxCell id="kl4MLw1pX1x4LPBpUnM3-10" value="TRUE" style="edgeLabel;html=1;align=center;verticalAlign=middle;resizable=0;points=[];" vertex="1" connectable="0" parent="kl4MLw1pX1x4LPBpUnM3-8">
          <mxGeometry x="-0.6769" y="2" relative="1" as="geometry">
            <mxPoint as="offset" />
          </mxGeometry>
        </mxCell>
        <mxCell id="kl4MLw1pX1x4LPBpUnM3-12" value="" style="edgeStyle=orthogonalEdgeStyle;rounded=0;orthogonalLoop=1;jettySize=auto;html=1;entryX=0.5;entryY=0;entryDx=0;entryDy=0;" edge="1" parent="1" source="kl4MLw1pX1x4LPBpUnM3-6" target="kl4MLw1pX1x4LPBpUnM3-14">
          <mxGeometry relative="1" as="geometry">
            <mxPoint x="80" y="440" as="targetPoint" />
            <Array as="points">
              <mxPoint x="81" y="260" />
              <mxPoint x="81" y="440" />
              <mxPoint x="80" y="440" />
            </Array>
          </mxGeometry>
        </mxCell>
        <mxCell id="kl4MLw1pX1x4LPBpUnM3-13" value="False" style="edgeLabel;html=1;align=center;verticalAlign=middle;resizable=0;points=[];" vertex="1" connectable="0" parent="kl4MLw1pX1x4LPBpUnM3-12">
          <mxGeometry x="-0.6651" y="-3" relative="1" as="geometry">
            <mxPoint as="offset" />
          </mxGeometry>
        </mxCell>
        <mxCell id="kl4MLw1pX1x4LPBpUnM3-6" value="if b==0" style="rhombus;whiteSpace=wrap;html=1;" vertex="1" parent="1">
          <mxGeometry x="180" y="220" width="80" height="80" as="geometry" />
        </mxCell>
        <mxCell id="kl4MLw1pX1x4LPBpUnM3-9" value="return a" style="rounded=1;whiteSpace=wrap;html=1;" vertex="1" parent="1">
          <mxGeometry x="280" y="460" width="120" height="60" as="geometry" />
        </mxCell>
        <mxCell id="kl4MLw1pX1x4LPBpUnM3-14" value="gcd(b,a%b)" style="rounded=0;whiteSpace=wrap;html=1;" vertex="1" parent="1">
          <mxGeometry x="20" y="460" width="120" height="60" as="geometry" />
        </mxCell>
        <mxCell id="kl4MLw1pX1x4LPBpUnM3-18" value="" style="edgeStyle=orthogonalEdgeStyle;rounded=0;orthogonalLoop=1;jettySize=auto;html=1;" edge="1" parent="1" source="kl4MLw1pX1x4LPBpUnM3-15" target="kl4MLw1pX1x4LPBpUnM3-17">
          <mxGeometry relative="1" as="geometry" />
        </mxCell>
        <mxCell id="kl4MLw1pX1x4LPBpUnM3-15" value="long long total_numerator = 0; long long common_denominator = 1" style="whiteSpace=wrap;html=1;" vertex="1" parent="1">
          <mxGeometry x="420" y="195" width="230" height="85" as="geometry" />
        </mxCell>
        <mxCell id="kl4MLw1pX1x4LPBpUnM3-20" value="" style="edgeStyle=orthogonalEdgeStyle;rounded=0;orthogonalLoop=1;jettySize=auto;html=1;" edge="1" parent="1" source="kl4MLw1pX1x4LPBpUnM3-17" target="kl4MLw1pX1x4LPBpUnM3-19">
          <mxGeometry relative="1" as="geometry" />
        </mxCell>
        <mxCell id="kl4MLw1pX1x4LPBpUnM3-17" value="Оголосити список аргументів: &lt;code&gt;va_list args&lt;/code&gt;" style="whiteSpace=wrap;html=1;" vertex="1" parent="1">
          <mxGeometry x="450" y="360" width="170" height="67.5" as="geometry" />
        </mxCell>
        <mxCell id="kl4MLw1pX1x4LPBpUnM3-22" value="" style="edgeStyle=orthogonalEdgeStyle;rounded=0;orthogonalLoop=1;jettySize=auto;html=1;" edge="1" parent="1" source="kl4MLw1pX1x4LPBpUnM3-19" target="kl4MLw1pX1x4LPBpUnM3-21">
          <mxGeometry relative="1" as="geometry" />
        </mxCell>
        <mxCell id="kl4MLw1pX1x4LPBpUnM3-19" value="Ініціалізувати список аргументів: &lt;code&gt;va_start(args, count)&lt;/code&gt;" style="whiteSpace=wrap;html=1;" vertex="1" parent="1">
          <mxGeometry x="445" y="504.5" width="180" height="68.75" as="geometry" />
        </mxCell>
        <mxCell id="kl4MLw1pX1x4LPBpUnM3-24" value="" style="edgeStyle=orthogonalEdgeStyle;rounded=0;orthogonalLoop=1;jettySize=auto;html=1;" edge="1" parent="1" source="kl4MLw1pX1x4LPBpUnM3-21" target="kl4MLw1pX1x4LPBpUnM3-23">
          <mxGeometry relative="1" as="geometry" />
        </mxCell>
        <mxCell id="kl4MLw1pX1x4LPBpUnM3-21" value="int i = 0; i &amp;lt; count; i++" style="rhombus;whiteSpace=wrap;html=1;" vertex="1" parent="1">
          <mxGeometry x="470" y="640" width="130" height="100" as="geometry" />
        </mxCell>
        <mxCell id="kl4MLw1pX1x4LPBpUnM3-26" value="" style="edgeStyle=orthogonalEdgeStyle;rounded=0;orthogonalLoop=1;jettySize=auto;html=1;" edge="1" parent="1" source="kl4MLw1pX1x4LPBpUnM3-23" target="kl4MLw1pX1x4LPBpUnM3-25">
          <mxGeometry relative="1" as="geometry" />
        </mxCell>
        <mxCell id="kl4MLw1pX1x4LPBpUnM3-23" value="int numerator = va_arg (args,int);&amp;nbsp;&lt;div&gt;int denominator = va_arg(args , int); common_denominator *= denominator;&lt;/div&gt;" style="whiteSpace=wrap;html=1;" vertex="1" parent="1">
          <mxGeometry x="425" y="810" width="220" height="70" as="geometry" />
        </mxCell>
        <mxCell id="kl4MLw1pX1x4LPBpUnM3-28" value="" style="edgeStyle=orthogonalEdgeStyle;rounded=0;orthogonalLoop=1;jettySize=auto;html=1;" edge="1" parent="1" source="kl4MLw1pX1x4LPBpUnM3-25" target="kl4MLw1pX1x4LPBpUnM3-27">
          <mxGeometry relative="1" as="geometry" />
        </mxCell>
        <mxCell id="kl4MLw1pX1x4LPBpUnM3-25" value="Переініціалізувати список аргументів :&amp;nbsp;&lt;code&gt;va_start(args, count)&lt;/code&gt;" style="whiteSpace=wrap;html=1;" vertex="1" parent="1">
          <mxGeometry x="475" y="960" width="120" height="60" as="geometry" />
        </mxCell>
        <mxCell id="kl4MLw1pX1x4LPBpUnM3-30" value="" style="edgeStyle=orthogonalEdgeStyle;rounded=0;orthogonalLoop=1;jettySize=auto;html=1;" edge="1" parent="1" source="kl4MLw1pX1x4LPBpUnM3-27" target="kl4MLw1pX1x4LPBpUnM3-29">
          <mxGeometry relative="1" as="geometry" />
        </mxCell>
        <mxCell id="kl4MLw1pX1x4LPBpUnM3-27" value="int i = 0; i &amp;lt; count; i++" style="rhombus;whiteSpace=wrap;html=1;" vertex="1" parent="1">
          <mxGeometry x="470" y="1100" width="130" height="100" as="geometry" />
        </mxCell>
        <mxCell id="kl4MLw1pX1x4LPBpUnM3-32" value="" style="edgeStyle=orthogonalEdgeStyle;rounded=0;orthogonalLoop=1;jettySize=auto;html=1;" edge="1" parent="1" source="kl4MLw1pX1x4LPBpUnM3-29">
          <mxGeometry relative="1" as="geometry">
            <mxPoint x="535" y="1450" as="targetPoint" />
          </mxGeometry>
        </mxCell>
        <mxCell id="kl4MLw1pX1x4LPBpUnM3-29" value="int numerator = va_arg (args,int);&amp;nbsp;&lt;div&gt;int denominator = va_arg(args , int); total_numerator += numerator * (common_denominator/denominator);&lt;/div&gt;" style="whiteSpace=wrap;html=1;" vertex="1" parent="1">
          <mxGeometry x="400" y="1280" width="270" height="80" as="geometry" />
        </mxCell>
        <mxCell id="kl4MLw1pX1x4LPBpUnM3-35" value="" style="edgeStyle=orthogonalEdgeStyle;rounded=0;orthogonalLoop=1;jettySize=auto;html=1;" edge="1" parent="1" source="kl4MLw1pX1x4LPBpUnM3-33" target="kl4MLw1pX1x4LPBpUnM3-34">
          <mxGeometry relative="1" as="geometry" />
        </mxCell>
        <mxCell id="kl4MLw1pX1x4LPBpUnM3-33" value="va_end(args)" style="rounded=0;whiteSpace=wrap;html=1;" vertex="1" parent="1">
          <mxGeometry x="475" y="1450" width="120" height="60" as="geometry" />
        </mxCell>
        <mxCell id="kl4MLw1pX1x4LPBpUnM3-37" value="" style="edgeStyle=orthogonalEdgeStyle;rounded=0;orthogonalLoop=1;jettySize=auto;html=1;" edge="1" parent="1" source="kl4MLw1pX1x4LPBpUnM3-34" target="kl4MLw1pX1x4LPBpUnM3-36">
          <mxGeometry relative="1" as="geometry" />
        </mxCell>
        <mxCell id="kl4MLw1pX1x4LPBpUnM3-34" value="int gcd_value = gcd (total_numerator,common_denominator); total_numerator /= gcd_value;&amp;nbsp;&lt;div&gt;common_denominator /= gcd_value;&lt;/div&gt;" style="whiteSpace=wrap;html=1;rounded=0;" vertex="1" parent="1">
          <mxGeometry x="370" y="1600" width="330" height="90" as="geometry" />
        </mxCell>
        <mxCell id="kl4MLw1pX1x4LPBpUnM3-36" value="cout &amp;lt;&amp;lt; total_numerator &amp;lt;&amp;lt; &quot;/&quot; &amp;lt;&amp;lt; common_denominator &amp;lt;&amp;lt; endl;" style="shape=parallelogram;perimeter=parallelogramPerimeter;whiteSpace=wrap;html=1;fixedSize=1;rounded=0;" vertex="1" parent="1">
          <mxGeometry x="425" y="1785" width="220" height="60" as="geometry" />
        </mxCell>
        <mxCell id="kl4MLw1pX1x4LPBpUnM3-41" value="" style="edgeStyle=orthogonalEdgeStyle;rounded=0;orthogonalLoop=1;jettySize=auto;html=1;" edge="1" parent="1" source="kl4MLw1pX1x4LPBpUnM3-38" target="kl4MLw1pX1x4LPBpUnM3-40">
          <mxGeometry relative="1" as="geometry" />
        </mxCell>
        <mxCell id="kl4MLw1pX1x4LPBpUnM3-38" value="cout &amp;lt;&amp;lt; &quot;Sum for 5 fractions: &quot;;" style="shape=parallelogram;perimeter=parallelogramPerimeter;whiteSpace=wrap;html=1;fixedSize=1;" vertex="1" parent="1">
          <mxGeometry x="845" y="190" width="140" height="60" as="geometry" />
        </mxCell>
        <mxCell id="kl4MLw1pX1x4LPBpUnM3-45" value="" style="edgeStyle=orthogonalEdgeStyle;rounded=0;orthogonalLoop=1;jettySize=auto;html=1;" edge="1" parent="1" source="kl4MLw1pX1x4LPBpUnM3-40" target="kl4MLw1pX1x4LPBpUnM3-43">
          <mxGeometry relative="1" as="geometry" />
        </mxCell>
        <mxCell id="kl4MLw1pX1x4LPBpUnM3-40" value="sum (5, 1, 2, 1, 3, 1, 4, 1, 5, 1, 6);" style="whiteSpace=wrap;html=1;" vertex="1" parent="1">
          <mxGeometry x="805" y="330" width="220" height="60" as="geometry" />
        </mxCell>
        <mxCell id="kl4MLw1pX1x4LPBpUnM3-42" value="" style="edgeStyle=orthogonalEdgeStyle;rounded=0;orthogonalLoop=1;jettySize=auto;html=1;" edge="1" parent="1" source="kl4MLw1pX1x4LPBpUnM3-43" target="kl4MLw1pX1x4LPBpUnM3-44">
          <mxGeometry relative="1" as="geometry" />
        </mxCell>
        <mxCell id="kl4MLw1pX1x4LPBpUnM3-43" value="cout &amp;lt;&amp;lt; &quot;Sum for 10 fractions: &quot;;" style="shape=parallelogram;perimeter=parallelogramPerimeter;whiteSpace=wrap;html=1;fixedSize=1;" vertex="1" parent="1">
          <mxGeometry x="845" y="470" width="140" height="60" as="geometry" />
        </mxCell>
        <mxCell id="kl4MLw1pX1x4LPBpUnM3-49" value="" style="edgeStyle=orthogonalEdgeStyle;rounded=0;orthogonalLoop=1;jettySize=auto;html=1;" edge="1" parent="1" source="kl4MLw1pX1x4LPBpUnM3-44" target="kl4MLw1pX1x4LPBpUnM3-47">
          <mxGeometry relative="1" as="geometry" />
        </mxCell>
        <mxCell id="kl4MLw1pX1x4LPBpUnM3-44" value="sum (10, 1, 2, 1, 3, 1, 4, 1, 5, 1, 6, 1, 7, 1, 8, 1, 9, 1, 10, 1, 11);" style="whiteSpace=wrap;html=1;" vertex="1" parent="1">
          <mxGeometry x="745" y="610" width="340" height="60" as="geometry" />
        </mxCell>
        <mxCell id="kl4MLw1pX1x4LPBpUnM3-46" value="" style="edgeStyle=orthogonalEdgeStyle;rounded=0;orthogonalLoop=1;jettySize=auto;html=1;" edge="1" parent="1" source="kl4MLw1pX1x4LPBpUnM3-47" target="kl4MLw1pX1x4LPBpUnM3-48">
          <mxGeometry relative="1" as="geometry" />
        </mxCell>
        <mxCell id="kl4MLw1pX1x4LPBpUnM3-47" value="cout &amp;lt;&amp;lt; &quot;Sum for 12 fractions: &quot;;" style="shape=parallelogram;perimeter=parallelogramPerimeter;whiteSpace=wrap;html=1;fixedSize=1;" vertex="1" parent="1">
          <mxGeometry x="845" y="750" width="140" height="60" as="geometry" />
        </mxCell>
        <mxCell id="kl4MLw1pX1x4LPBpUnM3-51" value="" style="edgeStyle=orthogonalEdgeStyle;rounded=0;orthogonalLoop=1;jettySize=auto;html=1;" edge="1" parent="1" source="kl4MLw1pX1x4LPBpUnM3-48" target="kl4MLw1pX1x4LPBpUnM3-50">
          <mxGeometry relative="1" as="geometry" />
        </mxCell>
        <mxCell id="kl4MLw1pX1x4LPBpUnM3-48" value="sum (12, 1, 2, 1, 3, 1, 4, 1, 5, 1, 6, 1, 7, 1, 8, 1, 9, 1, 10, 1, 11, 1, 12, 1, 13);" style="whiteSpace=wrap;html=1;" vertex="1" parent="1">
          <mxGeometry x="700" y="890" width="430" height="60" as="geometry" />
        </mxCell>
        <mxCell id="kl4MLw1pX1x4LPBpUnM3-50" value="end" style="rounded=1;whiteSpace=wrap;html=1;" vertex="1" parent="1">
          <mxGeometry x="855" y="1030" width="120" height="60" as="geometry" />
        </mxCell>
      </root>
    </mxGraphModel>
  </diagram>
</mxfile>
